<?xml version="1.0" encoding="UTF-8" standalone="no"?>
<!-- Created with Inkscape (http://www.inkscape.org/) -->

<svg
   xmlns:dc="http://purl.org/dc/elements/1.1/"
   xmlns:cc="http://creativecommons.org/ns#"
   xmlns:rdf="http://www.w3.org/1999/02/22-rdf-syntax-ns#"
   xmlns:svg="http://www.w3.org/2000/svg"
   xmlns="http://www.w3.org/2000/svg"
   xmlns:sodipodi="http://sodipodi.sourceforge.net/DTD/sodipodi-0.dtd"
   xmlns:inkscape="http://www.inkscape.org/namespaces/inkscape"
   id="svg3441"
   version="1.1"
   inkscape:version="0.91 r13725"
   width="20"
   height="20"
   viewBox="0 0 20 20"
   sodipodi:docname="0.png">
  <metadata
     id="metadata3447">
    <rdf:RDF>
      <cc:Work
         rdf:about="">
        <dc:format>image/svg+xml</dc:format>
        <dc:type
           rdf:resource="http://purl.org/dc/dcmitype/StillImage" />
        <dc:title></dc:title>
      </cc:Work>
    </rdf:RDF>
  </metadata>
  <defs
     id="defs3445" />
  <sodipodi:namedview
     pagecolor="#ffffff"
     bordercolor="#666666"
     borderopacity="1"
     objecttolerance="10"
     gridtolerance="10"
     guidetolerance="10"
     inkscape:pageopacity="0"
     inkscape:pageshadow="2"
     inkscape:window-width="1680"
     inkscape:window-height="1026"
     id="namedview3443"
     showgrid="false"
     inkscape:zoom="10.65"
     inkscape:cx="9.3630943"
     inkscape:cy="4.6603018"
     inkscape:window-x="1920"
     inkscape:window-y="0"
     inkscape:window-maximized="1"
     inkscape:current-layer="svg3441" />
  <path
     style="fill:#000000"
     d="m 1.6563967,18.098929 c 1.568648,-1.847873 2.1875,-4.759224 2.1875,-10.2909578 l 0,-7.71407401 6.2500003,0 c 3.787865,0 6.25,0.552722 6.25,1.40305501 0,0.926567 0.742892,0.827755 2.1875,-0.290958 2.083334,-1.61334701 2.083334,-1.57130601 0,0.88287 -1.568648,1.847874 -2.1875,4.759225 -2.1875,10.2909588 l 0,7.714074 -6.25,0 c -3.7878649,0 -6.2500003,-0.552723 -6.2500003,-1.403056 0,-0.926567 -0.7428931,-0.827754 -2.1875,0.290958 -2.08333332,1.613348 -2.08333332,1.571307 0,-0.88287 z m 13.4375003,-5.758717 0,-6.5036848 -5,4.8823698 c -2.7500003,2.685304 -5.0000003,5.611961 -5.0000003,6.503685 0,1.058201 1.7365966,1.621315 5.0000003,1.621315 l 5,0 0,-6.503685 z m 0,-9.3749998 c 0,-1.058201 -1.736596,-1.621315 -5,-1.621315 l -5.0000003,0 0,6.503684 0,6.5036858 5.0000003,-4.8823698 c 2.75,-2.685304 5,-5.611962 5,-6.503685 z"
     id="path3451"
     inkscape:connector-curvature="0" />
</svg>
