<?xml version="1.0" encoding="UTF-8" standalone="no"?>
<!-- Created with Inkscape (http://www.inkscape.org/) -->

<svg
   xmlns:dc="http://purl.org/dc/elements/1.1/"
   xmlns:cc="http://creativecommons.org/ns#"
   xmlns:rdf="http://www.w3.org/1999/02/22-rdf-syntax-ns#"
   xmlns:svg="http://www.w3.org/2000/svg"
   xmlns="http://www.w3.org/2000/svg"
   xmlns:sodipodi="http://sodipodi.sourceforge.net/DTD/sodipodi-0.dtd"
   xmlns:inkscape="http://www.inkscape.org/namespaces/inkscape"
   id="svg3758"
   version="1.1"
   inkscape:version="0.91 r13725"
   width="20"
   height="20"
   viewBox="0 0 20 20"
   sodipodi:docname="3.png">
  <metadata
     id="metadata3764">
    <rdf:RDF>
      <cc:Work
         rdf:about="">
        <dc:format>image/svg+xml</dc:format>
        <dc:type
           rdf:resource="http://purl.org/dc/dcmitype/StillImage" />
        <dc:title></dc:title>
      </cc:Work>
    </rdf:RDF>
  </metadata>
  <defs
     id="defs3762" />
  <sodipodi:namedview
     pagecolor="#ffffff"
     bordercolor="#666666"
     borderopacity="1"
     objecttolerance="10"
     gridtolerance="10"
     guidetolerance="10"
     inkscape:pageopacity="0"
     inkscape:pageshadow="2"
     inkscape:window-width="640"
     inkscape:window-height="480"
     id="namedview3760"
     showgrid="false"
     inkscape:zoom="11.8"
     inkscape:cx="-0.084745763"
     inkscape:cy="10"
     inkscape:window-x="0"
     inkscape:window-y="24"
     inkscape:window-maximized="0"
     inkscape:current-layer="svg3758" />
  <path
     style="fill:#000000"
     d="M 2.4008411,16.986228 C 0.99265563,15.125261 1.0071266,15.031966 2.4977851,16.361228 4.9471664,18.545412 7.6068057,18.268903 11.25,15.451307 L 14.375,13.034474 10.050046,11.515328 5.7250913,9.9961814 11.300046,7.6190125 16.875,5.2418433 13.75,3.5020803 C 9.444705,1.1052187 4.991399,1.2523757 2.8813455,3.8612288 1.2846646,5.835352 1.2450304,5.7743871 2.4750219,3.2362288 4.1176992,-0.15353036 8.4469844,-0.44356714 14.061826,2.4599806 l 3.937678,2.0362518 -2.888233,2.3387482 c -1.588527,1.2863115 -3.81029,2.381542 -4.937251,2.4338455 -1.126961,0.052304 -0.121607,0.7916959 2.23412,1.6430949 l 4.28314,1.547998 -4.401128,3.356904 c -5.1276353,3.911039 -7.5940396,4.202689 -9.8893109,1.169405 z"
     id="path3768"
     inkscape:connector-curvature="0" />
</svg>
