<?xml version="1.0" encoding="UTF-8" standalone="no"?>
<!-- Created with Inkscape (http://www.inkscape.org/) -->

<svg
   xmlns:dc="http://purl.org/dc/elements/1.1/"
   xmlns:cc="http://creativecommons.org/ns#"
   xmlns:rdf="http://www.w3.org/1999/02/22-rdf-syntax-ns#"
   xmlns:svg="http://www.w3.org/2000/svg"
   xmlns="http://www.w3.org/2000/svg"
   xmlns:sodipodi="http://sodipodi.sourceforge.net/DTD/sodipodi-0.dtd"
   xmlns:inkscape="http://www.inkscape.org/namespaces/inkscape"
   id="svg3928"
   version="1.1"
   inkscape:version="0.91 r13725"
   width="20"
   height="20"
   viewBox="0 0 20 20"
   sodipodi:docname="5.png">
  <metadata
     id="metadata3934">
    <rdf:RDF>
      <cc:Work
         rdf:about="">
        <dc:format>image/svg+xml</dc:format>
        <dc:type
           rdf:resource="http://purl.org/dc/dcmitype/StillImage" />
        <dc:title></dc:title>
      </cc:Work>
    </rdf:RDF>
  </metadata>
  <defs
     id="defs3932" />
  <sodipodi:namedview
     pagecolor="#ffffff"
     bordercolor="#666666"
     borderopacity="1"
     objecttolerance="10"
     gridtolerance="10"
     guidetolerance="10"
     inkscape:pageopacity="0"
     inkscape:pageshadow="2"
     inkscape:window-width="640"
     inkscape:window-height="480"
     id="namedview3930"
     showgrid="false"
     inkscape:zoom="11.8"
     inkscape:cx="-0.084745763"
     inkscape:cy="10"
     inkscape:window-x="204"
     inkscape:window-y="291"
     inkscape:window-maximized="0"
     inkscape:current-layer="svg3928" />
  <path
     style="fill:#000000"
     d="m 2.5881144,15.429026 c -1.73792509,-3.58827 -1.74167219,-3.779256 -0.0321,-1.636087 1.0645311,1.334526 1.9355111,2.881401 1.9355111,3.437499 0,0.556098 1.6875,1.011088 3.75,1.011088 3.5640605,0 8.7500005,-3.651674 8.7500005,-6.161303 0,-0.638715 -3.09375,-2.060678 -6.875,-3.1599184 C 6.3352755,7.8210656 3.2415255,6.420907 3.2415255,5.8088411 3.2415255,5.1967753 2.9000943,3.8062387 2.4827895,2.7187598 1.8318164,1.022351 2.9414219,0.77216804 10.29529,0.95727404 L 18.866526,1.1730227 11.090705,1.894774 C 4.6343632,2.4940513 3.5106404,2.93082 4.4684998,4.4686929 c 0.6344892,1.018692 3.8116977,2.706192 7.0604632,3.7499997 3.248765,1.043808 6.12968,2.5849784 6.402034,3.4248224 0.857789,2.645124 -5.506957,7.848011 -9.6005535,7.848011 -3.0217099,0 -4.1672308,-0.810416 -5.742329,-4.0625 z"
     id="path3938"
     inkscape:connector-curvature="0" />
</svg>
