<?xml version="1.0" encoding="UTF-8" standalone="no"?>
<!-- Created with Inkscape (http://www.inkscape.org/) -->

<svg
   xmlns:dc="http://purl.org/dc/elements/1.1/"
   xmlns:cc="http://creativecommons.org/ns#"
   xmlns:rdf="http://www.w3.org/1999/02/22-rdf-syntax-ns#"
   xmlns:svg="http://www.w3.org/2000/svg"
   xmlns="http://www.w3.org/2000/svg"
   xmlns:sodipodi="http://sodipodi.sourceforge.net/DTD/sodipodi-0.dtd"
   xmlns:inkscape="http://www.inkscape.org/namespaces/inkscape"
   id="svg5642"
   version="1.1"
   inkscape:version="0.91 r13725"
   width="20"
   height="20"
   viewBox="0 0 20 20"
   sodipodi:docname="e.svg">
  <metadata
     id="metadata5648">
    <rdf:RDF>
      <cc:Work
         rdf:about="">
        <dc:format>image/svg+xml</dc:format>
        <dc:type
           rdf:resource="http://purl.org/dc/dcmitype/StillImage" />
        <dc:title></dc:title>
      </cc:Work>
    </rdf:RDF>
  </metadata>
  <defs
     id="defs5646" />
  <sodipodi:namedview
     pagecolor="#ffffff"
     bordercolor="#666666"
     borderopacity="1"
     objecttolerance="10"
     gridtolerance="10"
     guidetolerance="10"
     inkscape:pageopacity="0"
     inkscape:pageshadow="2"
     inkscape:window-width="640"
     inkscape:window-height="480"
     id="namedview5644"
     showgrid="false"
     inkscape:zoom="11.8"
     inkscape:cx="-0.084745763"
     inkscape:cy="10"
     inkscape:window-x="0"
     inkscape:window-y="24"
     inkscape:window-maximized="0"
     inkscape:current-layer="svg5642" />
  <path
     style="fill:#000000"
     d="m 0.2542373,12.161017 0,-7.5 8.125,0 8.1249997,0 0,3.7499997 c 0,3.7500003 0,3.7500003 -7.5000002,3.7500003 -7.1294337,0 -7.4999995,0.15158 -7.4999995,3.067887 0,2.910994 0.4315005,3.090252 8.4374995,3.505175 l 8.4375002,0.437287 -9.0625002,0.244826 -9.0624995,0.244825 0,-7.5 z M 15.254237,8.4110167 c 0,-2.1969694 -0.833334,-2.4999997 -6.8749997,-2.4999997 -6.0416666,0 -6.875,0.3030303 -6.875,2.4999997 0,2.1969703 0.8333334,2.5000003 6.875,2.5000003 6.0416657,0 6.8749997,-0.30303 6.8749997,-2.5000003 z"
     id="path5652"
     inkscape:connector-curvature="0" />
</svg>
