<?xml version="1.0" encoding="UTF-8" standalone="no"?>
<!-- Created with Inkscape (http://www.inkscape.org/) -->

<svg
   xmlns:dc="http://purl.org/dc/elements/1.1/"
   xmlns:cc="http://creativecommons.org/ns#"
   xmlns:rdf="http://www.w3.org/1999/02/22-rdf-syntax-ns#"
   xmlns:svg="http://www.w3.org/2000/svg"
   xmlns="http://www.w3.org/2000/svg"
   xmlns:sodipodi="http://sodipodi.sourceforge.net/DTD/sodipodi-0.dtd"
   xmlns:inkscape="http://www.inkscape.org/namespaces/inkscape"
   id="svg4828"
   version="1.1"
   inkscape:version="0.91 r13725"
   width="20"
   height="20"
   viewBox="0 0 20 20"
   sodipodi:docname="t.svg">
  <metadata
     id="metadata4834">
    <rdf:RDF>
      <cc:Work
         rdf:about="">
        <dc:format>image/svg+xml</dc:format>
        <dc:type
           rdf:resource="http://purl.org/dc/dcmitype/StillImage" />
        <dc:title></dc:title>
      </cc:Work>
    </rdf:RDF>
  </metadata>
  <defs
     id="defs4832" />
  <sodipodi:namedview
     pagecolor="#ffffff"
     bordercolor="#666666"
     borderopacity="1"
     objecttolerance="10"
     gridtolerance="10"
     guidetolerance="10"
     inkscape:pageopacity="0"
     inkscape:pageshadow="2"
     inkscape:window-width="640"
     inkscape:window-height="480"
     id="namedview4830"
     showgrid="false"
     inkscape:zoom="11.8"
     inkscape:cx="-0.084745763"
     inkscape:cy="10"
     inkscape:window-x="0"
     inkscape:window-y="24"
     inkscape:window-maximized="0"
     inkscape:current-layer="svg4828" />
  <path
     style="fill:#000000"
     d="M 7.2556708,17.998722 C 9.3964998,17.42973 10.623213,13.53297 9.8453938,9.7722458 9.5401288,8.2962967 8.1013228,7.523824 5.4221159,7.3974557 L 1.4512712,7.2101656 5.1972084,6.6596649 C 7.2574738,6.3568895 9.3582358,5.4567951 9.8655668,4.659455 10.559253,3.5692348 10.792736,3.5766152 10.80713,4.689218 c 0.01053,0.8137096 1.566016,1.713804 3.456641,2.0002099 l 3.4375,0.5207377 -3.484811,0.1872901 c -2.805177,0.1507633 -3.437671,0.7358056 -3.243095,2.9997903 0.568579,6.615694 -0.08281,8.440815 -2.9595942,8.292499 -1.8976716,-0.09784 -2.1442606,-0.322608 -0.7581,-0.691023 z"
     id="path4838"
     inkscape:connector-curvature="0" />
</svg>
